# xmcd
#
# Track frame offsets: 
#        150
#        26487
#        49440
#        72670
#        90995
#        106867
#        123825
#        142695
#
# Disc length: 2075 seconds
#
# Revision: 1
# Processed by: cddbd v1.5.2PL0 Copyright (c) Steve Scherf et al.
# Submitted via: ExactAudioCopyFreeDBPlugin 1.0
#
DISCID=63081908
DTITLE=Eddie Floyd - Experience
DYEAR=1977
DGENRE=Soul
TTITLE0=Feel My Body
TTITLE1=Making Love (For The Very First Time With You)
TTITLE2=Take A Chance On Me
TTITLE3=Don't Expose Your Thing
TTITLE4=Your Love Is Heavy
TTITLE5=Prove It To Me
TTITLE6=You're Gonna Walk Out On Me
TTITLE7=It's Got To Be That Way
EXTD=
EXTT0=
EXTT1=
EXTT2=
EXTT3=
EXTT4=
EXTT5=
EXTT6=
EXTT7=
PLAYORDER=
